<?xml version="1.0" encoding="UTF-8" standalone="no"?>
<!-- Created with Inkscape (http://www.inkscape.org/) -->

<svg
   xmlns:dc="http://purl.org/dc/elements/1.1/"
   xmlns:cc="http://creativecommons.org/ns#"
   xmlns:rdf="http://www.w3.org/1999/02/22-rdf-syntax-ns#"
   xmlns:svg="http://www.w3.org/2000/svg"
   xmlns="http://www.w3.org/2000/svg"
   xmlns:sodipodi="http://sodipodi.sourceforge.net/DTD/sodipodi-0.dtd"
   xmlns:inkscape="http://www.inkscape.org/namespaces/inkscape"
   width="210mm"
   height="297mm"
   viewBox="0 0 744.09448819 1052.3622047"
   id="svg2"
   version="1.1"
   inkscape:version="0.91 r"
   sodipodi:docname="bird4.svg"
   inkscape:export-filename="/home/dean/phaser-projects/superbag/images/enemy/bird.png"
   inkscape:export-xdpi="90"
   inkscape:export-ydpi="90">
  <defs
     id="defs4">
    <inkscape:perspective
       sodipodi:type="inkscape:persp3d"
       inkscape:vp_x="0 : 526.1811 : 1"
       inkscape:vp_y="0 : 1000 : 0"
       inkscape:vp_z="744.09449 : 526.1811 : 1"
       inkscape:persp3d-origin="372.04724 : 350.7874 : 1"
       id="perspective3452" />
  </defs>
  <sodipodi:namedview
     id="base"
     pagecolor="#ffffff"
     bordercolor="#666666"
     borderopacity="1.0"
     inkscape:pageopacity="0.0"
     inkscape:pageshadow="2"
     inkscape:zoom="1.08"
     inkscape:cx="248.48507"
     inkscape:cy="516.84629"
     inkscape:document-units="px"
     inkscape:current-layer="layer6"
     showgrid="false"
     inkscape:window-width="1366"
     inkscape:window-height="716"
     inkscape:window-x="0"
     inkscape:window-y="0"
     inkscape:window-maximized="1"
     inkscape:snap-midpoints="true"
     inkscape:object-paths="false"
     inkscape:snap-nodes="false"
     inkscape:snap-smooth-nodes="true"
     inkscape:snap-intersection-paths="true"
     inkscape:snap-bbox="false" />
  <metadata
     id="metadata7">
    <rdf:RDF>
      <cc:Work
         rdf:about="">
        <dc:format>image/svg+xml</dc:format>
        <dc:type
           rdf:resource="http://purl.org/dc/dcmitype/StillImage" />
        <dc:title></dc:title>
      </cc:Work>
    </rdf:RDF>
  </metadata>
  <g
     inkscape:label="Layer 1"
     inkscape:groupmode="layer"
     id="layer1">
    <ellipse
       style="fill:#ff0000;fill-rule:evenodd;stroke:#000000;stroke-width:1.03895354px;stroke-linecap:butt;stroke-linejoin:miter;stroke-opacity:1"
       id="path3352"
       cx="375.92593"
       cy="519.02887"
       rx="140.72127"
       ry="109.23978" />
    <ellipse
       style="fill:#ffffff"
       id="path3358"
       cx="481.94446"
       cy="506.99182"
       rx="13.425926"
       ry="28.703703" />
    <ellipse
       style="fill:#000000"
       id="path3360"
       cx="487.03702"
       cy="514.86224"
       rx="7.4074073"
       ry="12.5" />
    <path
       style="fill:#000000"
       d=""
       id="path3438"
       inkscape:connector-curvature="0" />
    <flowRoot
       xml:space="preserve"
       id="flowRoot3442"
       style="fill:black;stroke:none;stroke-opacity:1;stroke-width:1px;stroke-linejoin:miter;stroke-linecap:butt;fill-opacity:1;font-family:sans-serif;font-style:normal;font-weight:normal;font-size:40px;line-height:125%;letter-spacing:0px;word-spacing:0px"><flowRegion
         id="flowRegion3444"><rect
           id="rect3446"
           width="54.166668"
           height="55.555557"
           x="497.68518"
           y="409.76962" /></flowRegion><flowPara
         id="flowPara3448" /></flowRoot>    <rect
       style="fill:#000000"
       id="rect3450"
       width="87.671951"
       height="6.4600387"
       x="-724.2807"
       y="-93.229088"
       rx="17.072929"
       ry="0"
       transform="matrix(-0.79859631,-0.60186703,0.79859631,-0.60186703,0,0)" />
    <g
       sodipodi:type="inkscape:box3d"
       id="g3454"
       style="fill:#000000;fill-opacity:0"
       inkscape:perspectiveID="#perspective3452"
       inkscape:corner0="1.3159136 : 0.34832594 : 0 : 1"
       inkscape:corner7="0.56651468 : 0.24342243 : 0.25 : 1">
      <path
         sodipodi:type="inkscape:box3dside"
         id="path3466"
         style="fill:#e9e9ff;fill-rule:evenodd;stroke:none;stroke-width:1px;stroke-linecap:butt;stroke-linejoin:round;stroke-opacity:1"
         inkscape:box3dsidetype="11"
         d="m 217.49402,458.78515 89.72665,-27.80406 0,57.74989 -89.72665,10.93766 z"
         points="307.22067,430.98109 307.22067,488.73098 217.49402,499.66864 217.49402,458.78515 " />
      <path
         sodipodi:type="inkscape:box3dside"
         id="path3456"
         style="fill:#353564;fill-rule:evenodd;stroke:none;stroke-width:1px;stroke-linecap:butt;stroke-linejoin:round;stroke-opacity:1"
         inkscape:box3dsidetype="6"
         d="m 160.64815,451.50983 0,45.29682 56.84587,2.86199 0,-40.88349 z"
         points="160.64815,496.80665 217.49402,499.66864 217.49402,458.78515 160.64815,451.50983 " />
      <path
         sodipodi:type="inkscape:box3dside"
         id="path3458"
         style="fill:#4d4d9f;fill-rule:evenodd;stroke:none;stroke-width:1px;stroke-linecap:butt;stroke-linejoin:round;stroke-opacity:1"
         inkscape:box3dsidetype="5"
         d="m 160.64815,451.50983 76.85185,-35.7217 69.72067,15.19296 -89.72665,27.80406 z"
         points="237.5,415.78813 307.22067,430.98109 217.49402,458.78515 160.64815,451.50983 " />
      <path
         sodipodi:type="inkscape:box3dside"
         id="path3464"
         style="fill:#afafde;fill-rule:evenodd;stroke:none;stroke-width:1px;stroke-linecap:butt;stroke-linejoin:round;stroke-opacity:1"
         inkscape:box3dsidetype="13"
         d="M 160.64815,496.80665 237.5,482.75431 l 69.72067,5.97667 -89.72665,10.93766 z"
         points="237.5,482.75431 307.22067,488.73098 217.49402,499.66864 160.64815,496.80665 " />
      <path
         sodipodi:type="inkscape:box3dside"
         id="path3462"
         style="fill:#d7d7ff;fill-rule:evenodd;stroke:none;stroke-width:1px;stroke-linecap:butt;stroke-linejoin:round;stroke-opacity:1"
         inkscape:box3dsidetype="14"
         d="m 237.5,415.78813 0,66.96618 69.72067,5.97667 0,-57.74989 z"
         points="237.5,482.75431 307.22067,488.73098 307.22067,430.98109 237.5,415.78813 " />
      <path
         sodipodi:type="inkscape:box3dside"
         id="path3460"
         style="fill:#8686bf;fill-rule:evenodd;stroke:none;stroke-width:1px;stroke-linecap:butt;stroke-linejoin:round;stroke-opacity:1"
         inkscape:box3dsidetype="3"
         d="m 160.64815,451.50983 76.85185,-35.7217 0,66.96618 -76.85185,14.05234 z"
         points="237.5,415.78813 237.5,482.75431 160.64815,496.80665 160.64815,451.50983 " />
    </g>
    <g
       sodipodi:type="inkscape:box3d"
       id="g3468"
       style="fill:#000000;fill-opacity:0"
       inkscape:perspectiveID="#perspective3452"
       inkscape:corner0="1.2447543 : 0.15819311 : 0 : 1"
       inkscape:corner7="0.99905978 : 0.10454632 : 0.25 : 1">
      <path
         sodipodi:type="inkscape:box3dside"
         id="path3478"
         style="fill:#afafde;fill-rule:evenodd;stroke:none;stroke-width:1px;stroke-linecap:butt;stroke-linejoin:round;stroke-opacity:1"
         inkscape:box3dsidetype="13"
         d="m 165.74074,557.74242 20.37037,3.87905 62.02407,-3.93947 -24.43746,-3.10234 z"
         points="186.11111,561.62147 248.13518,557.682 223.69772,554.57966 165.74074,557.74242 " />
      <path
         sodipodi:type="inkscape:box3dside"
         id="path3470"
         style="fill:#353564;fill-rule:evenodd;stroke:none;stroke-width:1px;stroke-linecap:butt;stroke-linejoin:round;stroke-opacity:1"
         inkscape:box3dsidetype="6"
         d="m 165.74074,533.84369 0,23.89873 57.95698,-3.16276 0,-21.50384 z"
         points="165.74074,557.74242 223.69772,554.57966 223.69772,533.07582 165.74074,533.84369 " />
      <path
         sodipodi:type="inkscape:box3dside"
         id="path3480"
         style="fill:#e9e9ff;fill-rule:evenodd;stroke:none;stroke-width:1px;stroke-linecap:butt;stroke-linejoin:round;stroke-opacity:1"
         inkscape:box3dsidetype="11"
         d="m 223.69772,533.07582 24.43746,0.7532 0,23.85298 -24.43746,-3.10234 z"
         points="248.13518,533.82902 248.13518,557.682 223.69772,554.57966 223.69772,533.07582 " />
      <path
         sodipodi:type="inkscape:box3dside"
         id="path3472"
         style="fill:#4d4d9f;fill-rule:evenodd;stroke:none;stroke-width:1px;stroke-linecap:butt;stroke-linejoin:round;stroke-opacity:1"
         inkscape:box3dsidetype="5"
         d="m 165.74074,533.84369 20.37037,0.94177 62.02407,-0.95644 -24.43746,-0.7532 z"
         points="186.11111,534.78546 248.13518,533.82902 223.69772,533.07582 165.74074,533.84369 " />
      <path
         sodipodi:type="inkscape:box3dside"
         id="path3476"
         style="fill:#d7d7ff;fill-rule:evenodd;stroke:none;stroke-width:1px;stroke-linecap:butt;stroke-linejoin:round;stroke-opacity:1"
         inkscape:box3dsidetype="14"
         d="m 186.11111,534.78546 0,26.83601 62.02407,-3.93947 0,-23.85298 z"
         points="186.11111,561.62147 248.13518,557.682 248.13518,533.82902 186.11111,534.78546 " />
      <path
         sodipodi:type="inkscape:box3dside"
         id="path3474"
         style="fill:#8686bf;fill-rule:evenodd;stroke:none;stroke-width:1px;stroke-linecap:butt;stroke-linejoin:round;stroke-opacity:1"
         inkscape:box3dsidetype="3"
         d="m 165.74074,533.84369 20.37037,0.94177 0,26.83601 -20.37037,-3.87905 z"
         points="186.11111,534.78546 186.11111,561.62147 165.74074,557.74242 165.74074,533.84369 " />
    </g>
    <path
       style="fill:#aa4400;fill-rule:evenodd;stroke:#000000;stroke-width:1px;stroke-linecap:butt;stroke-linejoin:miter;stroke-opacity:1"
       d="m 516.2037,532.91776 c 106.94445,0.92593 106.94445,20.37037 106.94445,20.37037 l -112.96296,0 z"
       id="path3488"
       inkscape:connector-curvature="0" />
    <path
       style="fill:#aa4400;fill-rule:evenodd;stroke:#000000;stroke-width:1px;stroke-linecap:butt;stroke-linejoin:miter;stroke-opacity:1"
       d="m 503.7037,564.8622 c 59.25926,-0.92592 58.33334,-11.57407 58.33334,-11.57407 l -51.62037,-0.46296 z"
       id="path3494"
       inkscape:connector-curvature="0" />
  </g>
  <g
     inkscape:groupmode="layer"
     id="layer6"
     inkscape:label="Layer 4">
    <path
       style="display:inline;fill:#aa0000;fill-opacity:1;fill-rule:evenodd;stroke:#000000;stroke-width:0.75;stroke-opacity:1"
       d="m 296.9919,549.85565 c -84.94677,57.27062 -74.61899,66.63544 -84.35822,58.46094 -9.73924,-8.17452 3.43355,-32.4636 20.35788,-47.78259 16.92434,-15.31899 43.21963,-21.82557 43.53857,-21.64143 0.31896,0.18414 20.46177,10.96308 20.46177,10.96308 z"
       id="path3500-7-4"
       inkscape:connector-curvature="0" />
  </g>
  <g
     inkscape:groupmode="layer"
     id="layer4"
     inkscape:label="Layer 2">
    <path
       style="display:inline;fill:#bf0000;fill-opacity:1;fill-rule:evenodd;stroke:#000000;stroke-opacity:1"
       d="m 305.65164,546.2956 c -89.63939,103.07334 -73.1065,111.57027 -88.47063,104.40325 -15.36414,-7.16703 -6.78086,-42.9948 9.72955,-68.56458 16.51041,-25.5698 48.13077,-43.02394 48.60509,-42.89685 0.47432,0.1271 30.13599,7.05818 30.13599,7.05818 z"
       id="path3500-7"
       inkscape:connector-curvature="0" />
  </g>
  <g
     inkscape:groupmode="layer"
     id="layer5"
     inkscape:label="Layer 3">
    <path
       style="fill:#df0000;fill-opacity:1;fill-rule:evenodd;stroke:#000000;stroke-opacity:1"
       d="m 317.28219,537.8086 c -79.87687,163.68213 -55.65192,168.91996 -77.91269,164.99159 -22.26077,-3.92838 -23.57023,-53.03301 -11.13038,-91.66199 12.43984,-38.62899 47.14045,-72.02014 47.79518,-72.02014 0.65473,0 41.24789,-1.30946 41.24789,-1.30946 z"
       id="path3500"
       inkscape:connector-curvature="0" />
  </g>
</svg>
